<?xml version="1.0" encoding="UTF-8"?>
<svg width="100px" height="251px" viewBox="0 0 100 251" version="1.1" xmlns="http://www.w3.org/2000/svg" xmlns:xlink="http://www.w3.org/1999/xlink">
    <!-- Generator: Sketch 51.3 (57544) - http://www.bohemiancoding.com/sketch -->
    <title>Shape</title>
    <desc>Created with Sketch.</desc>
    <defs></defs>
    <g id="Page-1" stroke="none" stroke-width="1" fill="none" fill-rule="evenodd">
        <g id="surfboard" transform="translate(-1.000000, 0.000000)" fill="#000000" fill-rule="nonzero">
            <path d="M81.3143349,245.420981 C80.9605472,247.541473 79.4682467,249.295062 77.4316516,249.983489 C75.3950566,250.671915 73.1448599,250.183395 71.5770662,248.712452 L51.3482332,228.140758 L30.7765387,248.712452 C29.2840927,250.222667 27.0818457,250.789382 25.045799,250.187171 C23.0097523,249.58496 21.4700965,247.911485 21.03927,245.832415 C12.8791645,207.77478 -0.286719933,162.44848 1.08472637,116.573601 C1.57725308,74.0509999 17.8255105,33.2226718 46.6853158,1.9892628 C47.7794104,0.725819766 49.3683316,-0.000113648105 51.0396578,-0.000113648105 C52.710984,-0.000113648105 54.2999052,0.725819766 55.3939998,1.9892628 C83.9745174,32.8122812 100.164755,73.1047278 100.857445,115.133582 C102.366036,159.77416 90.2287358,203.797586 81.3143349,245.420981 Z M72.2627893,232.597958 C80.6286117,194.883185 90.2287358,156.002682 89.5430127,118.082192 L56.9025907,85.4417701 L56.9025907,147.156854 C65.3369855,151.682626 68.491312,164.779939 68.491312,174.58578 C68.491312,184.391621 65.4055578,197.42036 56.9025907,202.014706 L56.9025907,217.237759 L72.2627893,232.597958 Z M45.3138695,174.58578 C45.3138695,186.037356 49.77107,192.003148 51.073944,192.003148 C52.376818,192.003148 56.8340184,185.763067 56.8340184,174.380063 C56.8340184,162.997058 52.376818,157.031267 51.073944,157.031267 C50.6740832,157.159944 50.3179306,157.397379 50.0453593,157.71699 C46.628606,162.653738 44.9629286,168.59224 45.3138695,174.58578 Z M56.8340184,21.8752341 L56.8340184,68.9158422 L88.308711,100.390535 C85.3116179,71.8038083 74.4129467,44.6164913 56.8340184,21.8752341 Z M45.3138695,69.3958484 L45.2452972,21.8066618 C27.6348713,44.7967226 16.7188419,72.2054487 13.7020323,101.007686 L45.3138695,69.3958484 Z M12.536303,118.425054 C11.7134352,157.71699 21.9992824,196.871782 30.1593879,233.146537 L45.2452972,217.923483 L45.2452972,202.288995 C36.8109025,197.69465 33.656576,184.66591 33.656576,174.860069 C33.656576,165.054228 36.7423301,152.025488 45.2452972,147.431143 L45.2452972,85.7160594 L12.536303,118.425054 Z" id="Shape"></path>
        </g>
    </g>
</svg>