<?xml version="1.0" encoding="utf-8"?>
<!-- Generator: Adobe Illustrator 22.0.1, SVG Export Plug-In . SVG Version: 6.00 Build 0)  -->
<svg version="1.1" id="_x39_45b7132-8e73-4adf-a4b9-6bcbaa5f7538"
	 xmlns="http://www.w3.org/2000/svg" xmlns:xlink="http://www.w3.org/1999/xlink" x="0px" y="0px" viewBox="0 0 1017 779.7"
	 style="enable-background:new 0 0 1017 779.7;" xml:space="preserve">
<style type="text/css">
	.st0{fill:url(#SVGID_1_);}
	.st1{fill:#FFFFFF;}
	.st2{fill:#FAFAFA;}
	.st3{fill:#DBDBDB;}
	.st4{fill:url(#SVGID_2_);}
	.st5{opacity:0.8;}
	.st6{fill:none;stroke:#6C63FF;stroke-width:2;stroke-miterlimit:10;}
	.st7{fill:none;stroke:#6C63FF;stroke-width:2;stroke-miterlimit:10;stroke-dasharray:9.3,9.3;}
	.st8{fill:none;stroke:#6C63FF;stroke-width:2;stroke-miterlimit:10;stroke-dasharray:13.55,13.55;}
	.st9{fill:none;stroke:#6C63FF;stroke-width:2;stroke-miterlimit:10;stroke-dasharray:12;}
	.st10{fill:url(#SVGID_3_);}
	.st11{fill:#6C63FF;}
	.st12{fill:none;stroke:#3AD29F;stroke-width:2;stroke-miterlimit:10;stroke-dasharray:12;}
	.st13{fill:none;stroke:#6C63FF;stroke-width:2;stroke-miterlimit:10;stroke-dasharray:11,13.55;}
</style>
<title>design process</title>
<linearGradient id="SVGID_1_" gradientUnits="userSpaceOnUse" x1="196.27" y1="341.15" x2="196.27" y2="719.34" gradientTransform="matrix(1 0 0 -1 -91.51 719.34)">
	<stop  offset="0" style="stop-color:#808080;stop-opacity:0.25"/>
	<stop  offset="0.54" style="stop-color:#808080;stop-opacity:0.12"/>
	<stop  offset="1" style="stop-color:#808080;stop-opacity:0.1"/>
</linearGradient>
<path class="st0" d="M8,0h193.6c4.4,0,8,3.6,8,8v362.3c0,4.4-3.6,8-8,8H8c-4.4,0-8-3.6-8-8V8C0,3.6,3.6,0,8,0z"/>
<path class="st1" d="M16.5,5.1h176.6c7.5,0,13.6,6.1,13.6,13.6v340.7c0,7.5-6.1,13.6-13.6,13.6H16.5c-7.5,0-13.6-6.1-13.6-13.6V18.8
	C2.8,11.2,8.9,5.1,16.5,5.1z"/>
<path class="st2" d="M156,14.4c-1.2,8-8.2,14-16.3,14H69.3c-8.1,0-15-6-16.3-14H15.7c-4.3,0-7.7,3.5-7.7,7.7v334
	c0,4.3,3.5,7.7,7.7,7.7h178.1c4.3,0,7.7-3.5,7.7-7.7v-334c0-4.3-3.5-7.7-7.7-7.7H156z"/>
<path class="st3" d="M83.8,18.7h42.6c0.8,0,1.4,0.6,1.4,1.4l0,0c0,0.8-0.6,1.4-1.4,1.4H83.8c-0.8,0-1.4-0.6-1.4-1.4l0,0
	C82.3,19.4,83,18.7,83.8,18.7z"/>
<circle class="st3" cx="137.4" cy="19.9" r="1.7"/>
<linearGradient id="SVGID_2_" gradientUnits="userSpaceOnUse" x1="600.13" y1="165.92" x2="600.13" y2="544.11" gradientTransform="matrix(1 0 0 -1 -91.51 719.34)">
	<stop  offset="0" style="stop-color:#808080;stop-opacity:0.25"/>
	<stop  offset="0.54" style="stop-color:#808080;stop-opacity:0.12"/>
	<stop  offset="1" style="stop-color:#808080;stop-opacity:0.1"/>
</linearGradient>
<path class="st4" d="M411.8,175.2h193.6c4.4,0,8,3.6,8,8v362.3c0,4.4-3.6,8-8,8H411.8c-4.4,0-8-3.6-8-8V183.2
	C403.9,178.8,407.4,175.2,411.8,175.2z"/>
<path class="st1" d="M420.3,180.3h176.6c7.5,0,13.6,6.1,13.6,13.6v340.7c0,7.5-6.1,13.6-13.6,13.6H420.3c-7.5,0-13.6-6.1-13.6-13.6
	V194C406.7,186.4,412.8,180.3,420.3,180.3z"/>
<path class="st2" d="M559.8,189.6c-1.2,8.1-8.1,14-16.3,14.1h-70.4c-8.2,0-15.1-6-16.3-14.1h-37.3c-4.3,0-7.7,3.5-7.7,7.7v334
	c0,4.3,3.5,7.7,7.7,7.7h178.1c4.3,0,7.8-3.4,7.8-7.7c0,0,0,0,0-0.1v-334c0-4.3-3.5-7.7-7.7-7.7L559.8,189.6z"/>
<path class="st3" d="M487.6,194h42.6c0.8,0,1.4,0.6,1.4,1.4l0,0c0,0.8-0.6,1.4-1.4,1.4h-42.6c-0.8,0-1.4-0.6-1.4-1.4l0,0
	C486.2,194.6,486.8,194,487.6,194z"/>
<circle class="st3" cx="541.3" cy="195.1" r="1.7"/>
<g class="st5">
	<polyline class="st6" points="583,490.8 583,496.8 568,496.8 	"/>
	<line class="st7" x1="544.8" y1="496.8" x2="463.7" y2="496.8"/>
	<polyline class="st6" points="452.1,496.8 437.1,496.8 437.1,490.8 	"/>
	<line class="st8" x1="437.1" y1="477.2" x2="437.1" y2="456.9"/>
	<polyline class="st6" points="437.1,450.1 437.1,444.1 452.1,444.1 	"/>
	<line class="st7" x1="475.3" y1="444.1" x2="556.4" y2="444.1"/>
	<polyline class="st6" points="568,444.1 583,444.1 583,450.1 	"/>
	<line class="st8" x1="583" y1="463.7" x2="583" y2="484"/>
</g>
<g class="st5">
	<line class="st9" x1="437.1" y1="325.5" x2="583.3" y2="325.5"/>
	<line class="st9" x1="437.1" y1="354.8" x2="583.3" y2="354.8"/>
	<line class="st9" x1="437.1" y1="384" x2="583.3" y2="384"/>
	<line class="st9" x1="437.1" y1="413.3" x2="583.3" y2="413.3"/>
</g>
<linearGradient id="SVGID_3_" gradientUnits="userSpaceOnUse" x1="1003.7" y1="-8.48" x2="1003.7" y2="369.71" gradientTransform="matrix(1 0 0 -1 -91.51 719.34)">
	<stop  offset="0" style="stop-color:#808080;stop-opacity:0.25"/>
	<stop  offset="0.54" style="stop-color:#808080;stop-opacity:0.12"/>
	<stop  offset="1" style="stop-color:#808080;stop-opacity:0.1"/>
</linearGradient>
<path class="st10" d="M815.4,349.6H1009c4.4,0,8,3.6,8,8v362.3c0,4.4-3.6,8-8,8H815.4c-4.4,0-8-3.6-8-8V357.6
	C807.4,353.2,811,349.6,815.4,349.6z"/>
<path class="st1" d="M823.9,354.7h176.6c7.5,0,13.6,6.1,13.6,13.6v340.7c0,7.5-6.1,13.6-13.6,13.6H823.9c-7.5,0-13.6-6.1-13.6-13.6
	V368.4C810.3,360.8,816.4,354.7,823.9,354.7z"/>
<path class="st2" d="M963.4,364c-1.2,8.1-8.1,14-16.3,14.1h-70.4c-8.2,0-15.1-6-16.3-14.1h-37.3c-4.3,0-7.7,3.5-7.7,7.7v334
	c0,4.3,3.5,7.7,7.7,7.7h178.2c4.3,0,7.7-3.5,7.7-7.7v-334c0-4.3-3.5-7.7-7.7-7.7H963.4z"/>
<path class="st3" d="M891.2,368.4h42.6c0.8,0,1.4,0.6,1.4,1.4v0c0,0.8-0.6,1.4-1.4,1.4h-42.6c-0.8,0-1.4-0.6-1.4-1.4v0
	C889.8,369,890.4,368.4,891.2,368.4z"/>
<circle class="st3" cx="944.8" cy="369.5" r="1.7"/>
<rect x="836.5" y="618.5" class="st11" width="146.2" height="52.6"/>
<line class="st6" x1="836.5" y1="502.9" x2="982.7" y2="502.9"/>
<line class="st6" x1="836.5" y1="532.1" x2="982.7" y2="532.1"/>
<line class="st6" x1="836.5" y1="561.3" x2="982.7" y2="561.3"/>
<line class="st6" x1="836.5" y1="590.6" x2="982.7" y2="590.6"/>
<polyline class="st12" points="232.9,40.7 510,40.7 510,142.7 "/>
<polyline class="st12" points="509,590.7 509,778.7 913,778.7 913,746.7 "/>
<circle class="st13" cx="462.5" cy="276.3" r="28.2"/>
<circle class="st11" cx="862.5" cy="454.9" r="28.2"/>
</svg>
