<?xml version="1.0" encoding="utf-8"?>
<!-- Generator: Adobe Illustrator 22.0.1, SVG Export Plug-In . SVG Version: 6.00 Build 0)  -->
<svg version="1.1" id="eb784e0d-05db-44e6-8395-40b319063039"
	 xmlns="http://www.w3.org/2000/svg" xmlns:xlink="http://www.w3.org/1999/xlink" x="0px" y="0px" viewBox="0 0 1094 798.2"
	 style="enable-background:new 0 0 1094 798.2;" xml:space="preserve">
<style type="text/css">
	.st0{opacity:0.1;}
	.st1{fill:#6C63FF;}
	.st2{fill:url(#SVGID_1_);}
	.st3{fill:#F6F7F9;}
	.st4{fill:#DDE1EC;}
	.st5{fill:#E8EAF1;}
	.st6{fill:#FF5252;}
	.st7{fill:#FFFF00;}
	.st8{fill:#69F0AE;}
	.st9{fill:#FFFFFF;}
</style>
<title>wall post</title>
<g class="st0">
	<path class="st1" d="M66.4,119.4c10.2,17.7,4.6,40.8-6.5,58c-11.1,17.2-26.8,30.9-39.1,47.3c-24.4,32.8-30.7,84.5,0.1,111.4
		c6.6,5.8,14.8,10.4,18.9,18.2c5.6,10.8,1.4,23.8-2.8,35.2l-0.3,0.9c-15.9,43.1,7.5,90.9,51.5,104.5c24.3,7.5,46.2,19.6,62.5,39.3
		c14.2,17.2,22.4,38.3,31.8,58.5c16.9,36.5,38.8,71.4,68.9,98s69.6,44.2,109.8,42.7c91.8-3.3,159.4-100,251.2-105.1
		c6.6-0.4,13.7-0.1,19.2,3.5c7.8,5.1,10.2,15.2,13.5,24c17.4,46.4,69.7,67.8,116.5,84.1l88,30.6c47.8,16.6,98,33.5,148,25.8
		c50-7.7,98.8-48.8,96.7-99.3c-1.8-41.5-36.2-78.1-31.7-119.4c3.1-28.6,24.5-52.5,28.1-81.1c3.7-29.7-12.5-58.2-31.2-81.5
		c-53.7-67.2-130.3-111.6-205-154.3c-52.6-30.1-105.5-60.4-162.2-82c-139.7-53.2-293.2-50.9-442-65.4c-25.6-2.5-52.3-5.4-75.8-16.8
		c-18-8.7-32.1-28.8-51.8-33c-15.1-3.2-37.3,3.4-50.4,10.8C47.9,87.6,54.5,98.8,66.4,119.4z"/>
</g>
<linearGradient id="SVGID_1_" gradientUnits="userSpaceOnUse" x1="639.025" y1="125.5699" x2="639.025" y2="747.07" gradientTransform="matrix(1 0 0 -1 -53 747.07)">
	<stop  offset="0" style="stop-color:#808080;stop-opacity:0.25"/>
	<stop  offset="0.54" style="stop-color:#808080;stop-opacity:0.12"/>
	<stop  offset="1" style="stop-color:#808080;stop-opacity:0.1"/>
</linearGradient>
<path class="st2" d="M987.9,0H184.2c-15.5,0.1-27.9,12.7-27.9,28.1c0,0,0,0,0,0v565.2c-0.1,15.5,12.4,28.1,27.8,28.1c0,0,0,0,0,0
	h803.7c15.5-0.1,27.9-12.7,27.9-28.1c0,0,0,0,0,0V28.2C1015.8,12.7,1003.4,0.1,987.9,0C987.9,0,987.9,0,987.9,0z"/>
<path class="st3" d="M1012.1,59.9v526.7c0,15.3-12.4,27.6-27.6,27.6l0,0H187.9c-15.3,0-27.6-12.4-27.6-27.6l0,0V59.9H1012.1z"/>
<path class="st4" d="M368.3,331.4v282.9H187.9c-15.3,0-27.6-12.6-27.6-28.2V331.4H368.3z"/>
<rect x="430.1" y="124.4" class="st4" width="346.8" height="9.7"/>
<rect x="430.1" y="193.7" class="st4" width="209.2" height="9.8"/>
<rect x="685.9" y="193.7" class="st4" width="70.5" height="9.8"/>
<g class="st0">
	<rect x="224.2" y="370.9" class="st1" width="70.5" height="9.8"/>
</g>
<g class="st0">
	<rect x="224.2" y="414.8" class="st1" width="70.5" height="9.8"/>
</g>
<g class="st0">
	<rect x="224.2" y="458.7" class="st1" width="70.5" height="9.8"/>
</g>
<g class="st0">
	<rect x="224.2" y="502.6" class="st1" width="70.5" height="9.8"/>
</g>
<g class="st0">
	<rect x="224.2" y="546.5" class="st1" width="70.5" height="9.8"/>
</g>
<rect x="685.9" y="284.8" class="st4" width="70.5" height="9.8"/>
<rect x="685.9" y="375.8" class="st4" width="70.5" height="9.8"/>
<rect x="685.9" y="224.1" class="st4" width="70.5" height="9.8"/>
<rect x="807.3" y="224.1" class="st4" width="70.5" height="9.8"/>
<rect x="685.9" y="254.4" class="st4" width="70.5" height="9.7"/>
<rect x="807.3" y="254.4" class="st4" width="70.5" height="9.7"/>
<rect x="807.3" y="310.8" class="st4" width="70.5" height="9.8"/>
<rect x="807.3" y="341.1" class="st4" width="70.5" height="9.8"/>
<rect x="807.3" y="406.2" class="st4" width="70.5" height="9.8"/>
<rect x="430.1" y="224.1" class="st4" width="209.2" height="9.8"/>
<rect x="430.1" y="254.4" class="st4" width="209.2" height="9.7"/>
<rect x="430.1" y="284.8" class="st4" width="209.2" height="9.8"/>
<rect x="430.1" y="315.1" class="st4" width="209.2" height="9.8"/>
<rect x="430.1" y="345.5" class="st4" width="209.2" height="9.8"/>
<rect x="430.1" y="375.8" class="st4" width="209.2" height="9.8"/>
<rect x="430.1" y="406.2" class="st4" width="209.2" height="9.8"/>
<rect x="160.2" y="59.3" class="st1" width="208.1" height="277.5"/>
<path class="st5" d="M1012.1,31.7c0-15.3-12.4-27.6-27.6-27.6H187.9c-15.3,0-27.6,12.4-27.6,27.6l0,0v31.4h851.9V31.7z"/>
<circle class="st6" cx="193.9" cy="33.3" r="10.8"/>
<circle class="st7" cx="229.6" cy="33.3" r="10.8"/>
<circle class="st8" cx="265.4" cy="33.3" r="10.8"/>
<path class="st9" d="M325,198.1c0,13.9-4.8,27.4-13.5,38.2c-0.3,0.4-0.7,0.8-1,1.2l0,0c-0.1,0.1-0.1,0.1-0.2,0.2
	c-3.1,3.6-6.6,6.8-10.5,9.6l-0.5,0.4c-0.7,0.5-1.4,1-2.1,1.4l-0.5,0.3l-1,0.6c-0.2,0.1-0.3,0.2-0.5,0.3c-0.1,0.1-0.3,0.2-0.4,0.2
	c-1.5,0.9-3.1,1.7-4.8,2.5c-0.2,0.1-0.4,0.2-0.6,0.3s-0.4,0.2-0.6,0.3s-0.6,0.3-1,0.4c-3.5,1.5-7.1,2.6-10.8,3.4
	c-3.5,0.8-7.1,1.2-10.8,1.3h-0.5h-1.4c-4.8,0-9.5-0.5-14.2-1.6l-0.9-0.2c-2-0.5-4-1.2-6-1.9c-1.2-0.4-2.4-0.9-3.5-1.4
	c-0.3-0.1-0.6-0.2-0.9-0.4l-0.9-0.4l-0.8-0.4l0,0l-0.8-0.4l-0.9-0.5l-1-0.6l-0.2-0.1c-4.3-2.4-8.2-5.3-11.8-8.7
	c-0.3-0.3-0.6-0.6-0.9-0.9s-0.6-0.6-0.9-0.9c-23.4-24-22.8-62.5,1.3-85.8c24-23.4,62.5-22.8,85.8,1.3
	C318.9,167.1,325,182.3,325,198.1z"/>
<rect x="430.1" y="472.8" class="st4" width="447.6" height="121.4"/>
<g>
	<path class="st4" d="M253.2,161.2c3-2.9,6-5.9,9.1-8.8c0.9-0.9,2-1.3,3.2-1.3c1.2,0,2.2,0.4,3.1,1.3c2.8,2.8,5.7,5.5,8.5,8.3
		c6.1,5.9,12.1,11.8,18.2,17.7c5.2,5.1,10.4,10.2,15.6,15.3c0.6,0.6,1.2,1.2,1.5,2c0.6,1.8,0.2,3.3-1.1,4.6
		c-2.6,2.5-5.2,5.1-7.8,7.6c-8.8,8.6-17.6,17.2-26.3,25.7c-2.9,2.8-5.7,5.6-8.6,8.4c-1.8,1.8-4.5,1.8-6.4,0
		c-7-6.9-14.1-13.8-21.1-20.7c-7.2-7-14.3-14-21.5-21c-1.9-1.8-1.9-4.5,0-6.3c1.1-1.1,2.2-2.1,3.2-3.2c0.6-0.6,1.2-1.2,1.9-1.8
		c5.6-5.5,11.1-10.9,16.7-16.4c3.6-3.5,7.2-7,10.8-10.5C252.2,162.2,253.1,161.3,253.2,161.2z M281.9,203.1c-0.2,0-0.4,0.1-0.6,0.1
		c-1.4,0.3-2.7,0.7-4.1,1c-0.7,0.1-1.5,0.2-2.2,0.1c-0.8-0.1-1.4-0.7-2-1.2c-1.3-1.1-2.5-2.3-3.8-3.5c-0.5-0.4-0.9-0.9-1.2-1.5
		c-0.3-0.7-0.1-1.4,0.5-1.9c0.6-0.5,1.3-0.6,2-0.1c0.7,0.5,1.3,1,2,1.5c1.1,0.9,2.2,1.8,3.2,2.7c0.1,0.1,0.4,0.1,0.5,0.1
		c0.9-0.2,1.9-0.4,2.8-0.6c1.2-0.3,2.5-0.4,3.7-0.9c0.1-0.1,0.2-0.2,0.3-0.2c-0.1-0.1-0.2-0.3-0.3-0.4c-0.1-0.1-0.2-0.1-0.2-0.1
		c-0.6-0.2-1.3-0.4-1.9-0.5c-1.7-0.4-2.9-1.2-3.4-3c-0.5-2.2-1.1-4.5-1.6-6.7c-0.1-0.6-0.2-1.2,0.1-1.8c0.4-1.1,1.4-1.5,2.4-0.9
		c0.5,0.3,0.9,0.8,1.1,1.4c0.5,2,1,4,1.5,6c0,0.1,0.1,0.3,0.3,0.4c1.3,0.7,2.6,1.3,4,1.9c0.9,0.4,1.9,0.8,2.8,1.3
		c0.7,0.3,1.1,0.9,1.3,1.6c0.7,2.6,1.5,5.2,2.2,7.8c0,0.2,0.1,0.3,0.2,0.4c0.6-0.6,1.1-1.3,1.6-1.8c1.3-1.3,2-2.8,2.2-4.6
		c0.1-1.1,0.5-2.1,0.8-3.2c0.2-0.5,0.6-0.8,1.2-0.9c0.6-0.1,1.2,0.1,1.6,0.7c0.1,0.1,0.2,0.3,0.2,0.5c0,0.3,0,0.6,0,1
		c-0.3,1.5-0.6,3.1-0.9,4.6c-0.2,1-0.6,1.8-1.3,2.6c-1.1,1.3-2.2,2.6-3.3,3.9c-0.6,0.7-1.3,1.2-2.1,1.4c-1.4,0.4-2.7,0.8-4.1,1.2
		c-1.3,0.4-2.5,0.7-3.6,1.5c-3.1,2.3-2.5,1.5-4,4.6c0,0,0,0,0,0c0,0.1-0.1,0.2-0.1,0.3c2.9-0.1,5.8-0.2,8.7-0.4
		c-1.6-1.2-1.8-3.4-0.8-4.7c0.9-1.2,2.5-1.6,3.8-0.9c1.6,0.8,2.1,2.4,1.5,4.5c0.1,0,0.1-0.1,0.2-0.2c3.5-3.4,7-6.8,10.5-10.2
		c2.3-2.3,4.7-4.6,7-6.8c0.8-0.8,1-1.7,0.8-2.8c-0.2-0.7-0.7-1.2-1.1-1.6c-7.7-7.6-15.5-15.1-23.2-22.7
		c-6.4-6.2-12.8-12.5-19.2-18.7c-1.2-1.2-3-1.2-4.2,0c-2.5,2.4-5,4.9-7.5,7.3c-0.6,0.6-2.9,2.8-3.1,3.1c-0.1,0-0.1,0.1-0.1,0.1
		c-10.6,10.4-21.2,20.7-31.8,31.1c-1.4,1.3-1.4,3,0,4.3c1.4,1.3,2.7,2.7,4.1,4c0.1,0.1,0.1,0.1,0.2,0.2c0.1-0.1,0.2-0.2,0.2-0.3
		c3-3.8,6.3-7.3,10.3-10.2c2.2-1.6,4.4-3.2,6.8-4.4c3.5-1.8,7.1-2.7,11-2.3c2.5,0.2,4.8,1.1,6.8,2.5c2.8,2,4.5,4.7,5.7,7.9
		c0,0,0,0.1,0,0.2c-0.1-0.1-0.1-0.1-0.2-0.1c-2.1-1.5-4.4-2.3-6.9-2.5c-2.8-0.2-5.5,0.3-8,1.6c-4.6,2.5-6.9,7-6,12
		c0.3,1.9,1.3,3.3,3.1,4c0.8,0.3,1.7,0.5,2.6,0.5c1.4,0.1,2.9-0.1,4.3-0.3c1.7-0.2,3.3-0.9,4.7-1.9c0.5-0.4,1-0.7,1.5-1
		c2.6-1.5,5.3-1.7,7.9-0.1c0.5,0.3,0.8,0.7,1.2,1.1c0.2,0.2,0.3,0.5,0.2,0.9c-0.3-0.1-0.5-0.2-0.7-0.3c-1.8-0.6-3.2,0.3-3.5,2.1
		c-0.2,0.8-0.1,1.7,0.2,2.5c0.6,1.7,1.8,2.9,3.7,3.1c0.6,0.1,1.2,0,1.8,0c1.3-0.1,2.6-0.1,4-0.2c0.1,0,0.3-0.1,0.3-0.2
		c0.7-1.4,1.3-2.8,2-4.2c0.2-0.5,0.6-0.9,1-1.3c1.4-1,2.8-2.1,4.2-3.1c0.3-0.2,0.4-0.5,0.3-0.9c-0.3-1.2-0.7-2.3-1-3.5
		C282.3,204.4,282.1,203.8,281.9,203.1z"/>
</g>
</svg>
